<?xml version="1.0" encoding="utf-8"?>
<!-- Generator: Adobe Illustrator 19.0.0, SVG Export Plug-In . SVG Version: 6.00 Build 0)  -->
<svg version="1.1" id="Layer_1" xmlns="http://www.w3.org/2000/svg" xmlns:xlink="http://www.w3.org/1999/xlink" x="0px" y="0px"
	 viewBox="-181 304.9 232 232" style="enable-background:new -181 304.9 232 232;" xml:space="preserve">
<style type="text/css">
	.st0{display:none;}
	.st1{display:inline;fill:#FFFFFF;}
	.st2{display:inline;fill:black;}
	.st3{display:inline;}
	.st4{fill:black;}
	.st5{fill:#FFFFFF;}
</style>
<g id="Layer_2" class="st0">
	<path id="XMLID_9876_" class="st1" d="M-427.1,1129.5c-54,0-98-44-98-98s44-98,98-98s98,44,98,98S-373.1,1129.5-427.1,1129.5z"/>
	<polygon id="XMLID_9875_" class="st2" points="-403.3,1072.8 -450.9,1072.8 -444.2,1059 -410,1059 	"/>
	<path id="XMLID_9874_" class="st2" d="M-369.6,972.7h-60.5c5.3,2.6,9.8,6.6,13,11.5h43.6v58.8h-107.3v-58.8h8.3
		c3.2-4.9,7.7-8.9,13-11.5h-25.1c-4.2,0-7.7,3.5-7.7,7.7v66.5c0,4.2,3.5,7.7,7.7,7.7h115c4.2,0,7.7-3.5,7.7-7.7v-66.5
		C-361.9,976.1-365.4,972.7-369.6,972.7z"/>
	<path id="XMLID_9871_" class="st2" d="M-427.1,930.3c-55.8,0-101.2,45.4-101.2,101.2c0,55.8,45.4,101.2,101.2,101.2
		s101.2-45.4,101.2-101.2C-325.9,975.7-371.3,930.3-427.1,930.3z M-508.5,1079.9L-508.5,1079.9c-8.5-14.1-13.4-30.7-13.4-48.4
		c0-52.4,42.4-94.8,94.8-94.8s94.8,42.4,94.8,94.8c0,17.7-4.9,34.3-13.3,48.4H-508.5L-508.5,1079.9z"/>
	<g id="XMLID_9864_" class="st3">
		<path id="XMLID_9868_" class="st4" d="M-420,996.7c-2.4-0.8-3.9-2.4-4.4-4.9c-0.5-2.4,0.3-4.5,2.1-6.2c0.4-0.3,0.4-0.5,0.1-0.9
			c-1.5-2.2-3.3-4.2-5.5-5.8c-2.3,2.3-5,3-7.9,1.5c-2.8-1.4-3.8-3.8-3.5-6.9c-2.8-0.6-5.7-0.7-8.6-0.4c0,3.2-1.3,5.6-4.4,6.7
			c-3,1.1-5.5,0.1-7.5-2.3c-2.4,1.6-4.5,3.5-6.3,5.8c2.3,2.3,3,5,1.5,8c-1.4,2.7-3.8,3.7-6.8,3.5c-0.6,2.8-0.7,5.7-0.3,8.6
			c1.5-0.1,2.9,0.3,4.1,1.1c3.6,2.4,3.9,7.5,0.6,10.3c-0.3,0.2-0.3,0.4-0.1,0.7c1.5,2.1,4,4.8,5.6,5.9c2.2-2.1,4.7-2.8,7.6-1.5
			c2.8,1.3,4,3.7,3.8,6.8c1.9,0.4,3.8,0.6,5.8,0.5c0.9,0,1.8-0.1,2.7-0.1h0.1c-0.1-3.2,1.7-5.7,4.7-6.6c2.6-0.7,4.8,0,6.6,1.9
			c0.3,0.3,0.4,0.3,0.7,0.1c2.1-1.4,4.7-3.8,5.9-5.5c-2.2-2.3-2.8-5-1.3-7.9c1.4-2.6,3.7-3.7,6.7-3.4c0.6-2.8,0.7-5.6,0.4-8.5
			C-418.4,996.9-419.2,996.9-420,996.7z M-440.2,1012.2c-6.7,2.4-14.1-1-16.5-7.7s1-14.1,7.7-16.5c6.7-2.5,14.1,1,16.6,7.7
			C-430,1002.3-433.5,1009.7-440.2,1012.2z"/>
		<path id="XMLID_9865_" class="st4" d="M-389.4,1010.3c-1.8,0.1-3.3-0.6-4.3-2.2c-1-1.5-1-3.1-0.2-4.7c0.2-0.3,0.1-0.4-0.2-0.6
			c-1.6-1.1-3.3-2-5.2-2.6c-1,2.1-2.6,3.3-5,3.1c-2.2-0.2-3.6-1.6-4.2-3.8c-2.1,0.3-4,1-5.9,1.9c0.8,2.2,0.5,4.1-1.3,5.6
			s-3.7,1.5-5.7,0.3c-1.2,1.7-2.2,3.6-2.8,5.6c2.2,1,3.3,2.6,3.1,5c-0.2,2.2-1.6,3.5-3.7,4.1c0.3,2.1,1,4,2,5.9c1-0.4,2-0.5,3.1-0.3
			c3,0.7,4.5,4.1,3,6.8c-0.1,0.2-0.1,0.3,0.1,0.5c1.6,1.1,3.9,2.2,5.3,2.6c0.9-2,2.5-3.1,4.8-3c2.3,0.2,3.6,1.5,4.3,3.6
			c1.4-0.2,2.7-0.6,4-1.1c0.6-0.2,1.2-0.5,1.8-0.8l0,0c-0.9-2.1-0.3-4.3,1.5-5.7c1.6-1.1,3.3-1.2,5-0.4c0.3,0.1,0.4,0.1,0.5-0.1
			c1.1-1.5,2.2-3.8,2.6-5.3c-2.1-1-3.2-2.7-2.9-5c0.3-2.1,1.6-3.4,3.6-4c-0.3-2.1-1-4-1.9-5.9
			C-388.3,1010.1-388.8,1010.3-389.4,1010.3z M-399.1,1026c-3.9,3.4-9.8,2.9-13.2-1c-3.4-3.9-2.9-9.8,1-13.2c3.9-3.4,9.8-3,13.2,1
			C-394.7,1016.7-395.2,1022.6-399.1,1026z"/>
	</g>
	<g id="XMLID_8928_" class="st3">
		<path id="XMLID_8941_" class="st5" d="M-479.3,1088.1h5.6l4.3,12.5l0,0l4-12.5h5.6v18.2h-3.8v-12.9l0,0l-4.5,12.9h-2.9l-4.5-12.8
			l0,0v12.8h-3.8C-479.3,1106.3-479.3,1088.1-479.3,1088.1z"/>
		<path id="XMLID_8938_" class="st5" d="M-451.1,1088.1h4.1l6.8,18.2h-4.2l-1.4-4.1h-6.8l-1.4,4.1h-4L-451.1,1088.1z M-451.5,1099.3
			h4.7l-2.3-6.7h-0.1L-451.5,1099.3z"/>
		<path id="XMLID_8936_" class="st5" d="M-435.8,1100.3c0,0.6,0.1,1.1,0.3,1.6c0.2,0.4,0.5,0.8,0.9,1c0.4,0.3,0.8,0.5,1.3,0.6
			s1,0.2,1.5,0.2c0.4,0,0.7,0,1.2-0.1c0.4-0.1,0.8-0.2,1.1-0.3c0.4-0.2,0.7-0.4,0.9-0.7c0.2-0.3,0.4-0.7,0.4-1.1
			c0-0.5-0.2-0.9-0.5-1.2c-0.3-0.3-0.7-0.6-1.2-0.8c-0.5-0.2-1.1-0.4-1.7-0.5c-0.6-0.2-1.3-0.3-2-0.5c-0.7-0.2-1.3-0.4-2-0.6
			c-0.6-0.2-1.2-0.6-1.7-1c-0.5-0.4-0.9-0.9-1.2-1.5c-0.3-0.6-0.5-1.3-0.5-2.1c0-0.9,0.2-1.7,0.6-2.4c0.4-0.7,0.9-1.3,1.6-1.7
			c0.6-0.5,1.4-0.8,2.2-1c0.8-0.2,1.6-0.3,2.5-0.3c1,0,1.9,0.1,2.7,0.3c0.9,0.2,1.7,0.6,2.3,1c0.7,0.5,1.2,1.1,1.6,1.8
			c0.4,0.7,0.6,1.6,0.6,2.7h-3.9c0-0.5-0.1-1-0.3-1.4s-0.5-0.6-0.8-0.8c-0.3-0.2-0.7-0.3-1.1-0.4c-0.4-0.1-0.9-0.1-1.4-0.1
			c-0.3,0-0.6,0-1,0.1c-0.3,0.1-0.6,0.2-0.9,0.4c-0.3,0.2-0.5,0.4-0.7,0.6c-0.2,0.3-0.3,0.6-0.3,1s0.1,0.6,0.2,0.9
			c0.1,0.2,0.4,0.4,0.8,0.6c0.4,0.2,1,0.4,1.7,0.6s1.6,0.4,2.8,0.7c0.3,0.1,0.8,0.2,1.4,0.4c0.6,0.2,1.2,0.5,1.8,0.9
			s1.1,0.9,1.5,1.6c0.4,0.7,0.7,1.5,0.7,2.5c0,0.8-0.2,1.6-0.5,2.3c-0.3,0.7-0.8,1.3-1.4,1.9c-0.6,0.5-1.4,0.9-2.4,1.2
			c-0.9,0.3-2,0.4-3.3,0.4c-1,0-2-0.1-2.9-0.4c-0.9-0.2-1.8-0.6-2.5-1.2c-0.7-0.5-1.3-1.2-1.7-2c-0.4-0.8-0.6-1.8-0.6-2.9h3.9
			C-435.8,1100.6-435.8,1100.3-435.8,1100.3z"/>
		<path id="XMLID_8934_" class="st5" d="M-417.9,1091.5h-5.5v-3.4h14.9v3.4h-5.5v14.9h-4L-417.9,1091.5L-417.9,1091.5z"/>
		<path id="XMLID_8932_" class="st5" d="M-406.4,1088.1h13.6v3.4h-9.6v3.9h8.8v3.1h-8.8v4.5h9.8v3.4h-13.8V1088.1z"/>
		<path id="XMLID_8929_" class="st5" d="M-389.8,1088.1h9.8c0.8,0,1.6,0.1,2.2,0.4c0.7,0.3,1.2,0.6,1.7,1.1s0.8,1,1.1,1.6
			c0.2,0.6,0.4,1.3,0.4,2c0,1.1-0.2,2-0.7,2.8c-0.5,0.8-1.2,1.4-2.2,1.8v0.1c0.5,0.1,0.9,0.3,1.2,0.6c0.3,0.3,0.6,0.6,0.8,1
			s0.4,0.8,0.4,1.3c0.1,0.5,0.2,0.9,0.2,1.4c0,0.3,0,0.6,0.1,1c0,0.4,0,0.8,0.1,1.2c0,0.4,0.1,0.8,0.2,1.2s0.2,0.7,0.4,0.9h-4
			c-0.2-0.6-0.4-1.3-0.4-2.1c-0.1-0.8-0.1-1.6-0.2-2.3c-0.1-1-0.4-1.7-0.9-2.1c-0.4-0.4-1.2-0.7-2.2-0.7h-4v7.1h-4V1088.1
			L-389.8,1088.1z M-385.8,1096.4h4.4c0.9,0,1.6-0.2,2.1-0.6s0.7-1.1,0.7-2s-0.2-1.5-0.7-1.9s-1.2-0.6-2.1-0.6h-4.4V1096.4z"/>
	</g>
	<g id="XMLID_9394_" class="st3">
		<path id="XMLID_9422_" class="st4" d="M-427.1,1129.5c-54,0-98-44-98-98s44-98,98-98s98,44,98,98S-373.1,1129.5-427.1,1129.5z"/>
		<polygon id="XMLID_9421_" class="st5" points="-403.3,1072.8 -450.9,1072.8 -444.2,1059 -410,1059 		"/>
		<path id="XMLID_9420_" class="st5" d="M-369.6,972.7h-60.5c5.3,2.6,9.8,6.6,13,11.5h43.6v58.8h-107.3v-58.8h8.3
			c3.2-4.9,7.7-8.9,13-11.5h-25.1c-4.2,0-7.7,3.5-7.7,7.7v66.5c0,4.2,3.5,7.7,7.7,7.7h115c4.2,0,7.7-3.5,7.7-7.7v-66.5
			C-361.9,976.1-365.4,972.7-369.6,972.7z"/>
		<path id="XMLID_9417_" class="st5" d="M-427.1,930.3c-55.8,0-101.2,45.4-101.2,101.2c0,55.8,45.4,101.2,101.2,101.2
			s101.2-45.4,101.2-101.2C-325.9,975.7-371.3,930.3-427.1,930.3z M-508.5,1079.9L-508.5,1079.9c-8.5-14.1-13.4-30.7-13.4-48.4
			c0-52.4,42.4-94.8,94.8-94.8s94.8,42.4,94.8,94.8c0,17.7-4.9,34.3-13.3,48.4H-508.5L-508.5,1079.9z"/>
		<g id="XMLID_9402_">
			<path id="XMLID_9415_" class="st4" d="M-479.3,1088.1h5.6l4.3,12.5l0,0l4-12.5h5.6v18.2h-3.8v-12.9l0,0l-4.5,12.9h-2.9l-4.5-12.8
				l0,0v12.8h-3.8C-479.3,1106.3-479.3,1088.1-479.3,1088.1z"/>
			<path id="XMLID_9412_" class="st4" d="M-451.1,1088.1h4.1l6.8,18.2h-4.2l-1.4-4.1h-6.8l-1.4,4.1h-4L-451.1,1088.1z
				 M-451.5,1099.3h4.7l-2.3-6.7h-0.1L-451.5,1099.3z"/>
			<path id="XMLID_9410_" class="st4" d="M-435.8,1100.3c0,0.6,0.1,1.1,0.3,1.6c0.2,0.4,0.5,0.8,0.9,1c0.4,0.3,0.8,0.5,1.3,0.6
				s1,0.2,1.5,0.2c0.4,0,0.7,0,1.2-0.1c0.4-0.1,0.8-0.2,1.1-0.3c0.4-0.2,0.7-0.4,0.9-0.7c0.2-0.3,0.4-0.7,0.4-1.1
				c0-0.5-0.2-0.9-0.5-1.2c-0.3-0.3-0.7-0.6-1.2-0.8c-0.5-0.2-1.1-0.4-1.7-0.5c-0.6-0.2-1.3-0.3-2-0.5c-0.7-0.2-1.3-0.4-2-0.6
				c-0.6-0.2-1.2-0.6-1.7-1c-0.5-0.4-0.9-0.9-1.2-1.5c-0.3-0.6-0.5-1.3-0.5-2.1c0-0.9,0.2-1.7,0.6-2.4c0.4-0.7,0.9-1.3,1.6-1.7
				c0.6-0.5,1.4-0.8,2.2-1c0.8-0.2,1.6-0.3,2.5-0.3c1,0,1.9,0.1,2.7,0.3c0.9,0.2,1.7,0.6,2.3,1c0.7,0.5,1.2,1.1,1.6,1.8
				c0.4,0.7,0.6,1.6,0.6,2.7h-3.9c0-0.5-0.1-1-0.3-1.4s-0.5-0.6-0.8-0.8c-0.3-0.2-0.7-0.3-1.1-0.4c-0.4-0.1-0.9-0.1-1.4-0.1
				c-0.3,0-0.6,0-1,0.1c-0.3,0.1-0.6,0.2-0.9,0.4c-0.3,0.2-0.5,0.4-0.7,0.6c-0.2,0.3-0.3,0.6-0.3,1s0.1,0.6,0.2,0.9
				c0.1,0.2,0.4,0.4,0.8,0.6c0.4,0.2,1,0.4,1.7,0.6s1.6,0.4,2.8,0.7c0.3,0.1,0.8,0.2,1.4,0.4c0.6,0.2,1.2,0.5,1.8,0.9
				s1.1,0.9,1.5,1.6c0.4,0.7,0.7,1.5,0.7,2.5c0,0.8-0.2,1.6-0.5,2.3c-0.3,0.7-0.8,1.3-1.4,1.9c-0.6,0.5-1.4,0.9-2.4,1.2
				c-0.9,0.3-2,0.4-3.3,0.4c-1,0-2-0.1-2.9-0.4c-0.9-0.2-1.8-0.6-2.5-1.2c-0.7-0.5-1.3-1.2-1.7-2c-0.4-0.8-0.6-1.8-0.6-2.9h3.9
				C-435.8,1100.6-435.8,1100.3-435.8,1100.3z"/>
			<path id="XMLID_9408_" class="st4" d="M-417.9,1091.5h-5.5v-3.4h14.9v3.4h-5.5v14.9h-4L-417.9,1091.5L-417.9,1091.5z"/>
			<path id="XMLID_9406_" class="st4" d="M-406.4,1088.1h13.6v3.4h-9.6v3.9h8.8v3.1h-8.8v4.5h9.8v3.4h-13.8V1088.1z"/>
			<path id="XMLID_9403_" class="st4" d="M-389.8,1088.1h9.8c0.8,0,1.6,0.1,2.2,0.4c0.7,0.3,1.2,0.6,1.7,1.1s0.8,1,1.1,1.6
				c0.2,0.6,0.4,1.3,0.4,2c0,1.1-0.2,2-0.7,2.8c-0.5,0.8-1.2,1.4-2.2,1.8v0.1c0.5,0.1,0.9,0.3,1.2,0.6c0.3,0.3,0.6,0.6,0.8,1
				s0.4,0.8,0.4,1.3c0.1,0.5,0.2,0.9,0.2,1.4c0,0.3,0,0.6,0.1,1c0,0.4,0,0.8,0.1,1.2c0,0.4,0.1,0.8,0.2,1.2s0.2,0.7,0.4,0.9h-4
				c-0.2-0.6-0.4-1.3-0.4-2.1c-0.1-0.8-0.1-1.6-0.2-2.3c-0.1-1-0.4-1.7-0.9-2.1c-0.4-0.4-1.2-0.7-2.2-0.7h-4v7.1h-4V1088.1
				L-389.8,1088.1z M-385.8,1096.4h4.4c0.9,0,1.6-0.2,2.1-0.6s0.7-1.1,0.7-2s-0.2-1.5-0.7-1.9s-1.2-0.6-2.1-0.6h-4.4V1096.4z"/>
		</g>
		<g id="XMLID_9395_">
			<path id="XMLID_9399_" class="st5" d="M-420,996.7c-2.4-0.8-3.9-2.4-4.4-4.9c-0.5-2.4,0.3-4.5,2.1-6.2c0.4-0.3,0.4-0.5,0.1-0.9
				c-1.5-2.2-3.3-4.2-5.5-5.8c-2.3,2.3-5,3-7.9,1.5c-2.8-1.4-3.8-3.8-3.5-6.9c-2.8-0.6-5.7-0.7-8.6-0.4c0,3.2-1.3,5.6-4.4,6.7
				c-3,1.1-5.5,0.1-7.5-2.3c-2.4,1.6-4.5,3.5-6.3,5.8c2.3,2.3,3,5,1.5,8c-1.4,2.7-3.8,3.7-6.8,3.5c-0.6,2.8-0.7,5.7-0.3,8.6
				c1.5-0.1,2.9,0.3,4.1,1.1c3.6,2.4,3.9,7.5,0.6,10.3c-0.3,0.2-0.3,0.4-0.1,0.7c1.5,2.1,4,4.8,5.6,5.9c2.2-2.1,4.7-2.8,7.6-1.5
				c2.8,1.3,4,3.7,3.8,6.8c1.9,0.4,3.8,0.6,5.8,0.5c0.9,0,1.8-0.1,2.7-0.1h0.1c-0.1-3.2,1.7-5.7,4.7-6.6c2.6-0.7,4.8,0,6.6,1.9
				c0.3,0.3,0.4,0.3,0.7,0.1c2.1-1.4,4.7-3.8,5.9-5.5c-2.2-2.3-2.8-5-1.3-7.9c1.4-2.6,3.7-3.7,6.7-3.4c0.6-2.8,0.7-5.6,0.4-8.5
				C-418.4,996.9-419.2,996.9-420,996.7z M-440.2,1012.2c-6.7,2.4-14.1-1-16.5-7.7s1-14.1,7.7-16.5c6.7-2.5,14.1,1,16.6,7.7
				C-430,1002.3-433.5,1009.7-440.2,1012.2z"/>
			<path id="XMLID_9396_" class="st5" d="M-389.4,1010.3c-1.8,0.1-3.3-0.6-4.3-2.2c-1-1.5-1-3.1-0.2-4.7c0.2-0.3,0.1-0.4-0.2-0.6
				c-1.6-1.1-3.3-2-5.2-2.6c-1,2.1-2.6,3.3-5,3.1c-2.2-0.2-3.6-1.6-4.2-3.8c-2.1,0.3-4,1-5.9,1.9c0.8,2.2,0.5,4.1-1.3,5.6
				s-3.7,1.5-5.7,0.3c-1.2,1.7-2.2,3.6-2.8,5.6c2.2,1,3.3,2.6,3.1,5c-0.2,2.2-1.6,3.5-3.7,4.1c0.3,2.1,1,4,2,5.9
				c1-0.4,2-0.5,3.1-0.3c3,0.7,4.5,4.1,3,6.8c-0.1,0.2-0.1,0.3,0.1,0.5c1.6,1.1,3.9,2.2,5.3,2.6c0.9-2,2.5-3.1,4.8-3
				c2.3,0.2,3.6,1.5,4.3,3.6c1.4-0.2,2.7-0.6,4-1.1c0.6-0.2,1.2-0.5,1.8-0.8l0,0c-0.9-2.1-0.3-4.3,1.5-5.7c1.6-1.1,3.3-1.2,5-0.4
				c0.3,0.1,0.4,0.1,0.5-0.1c1.1-1.5,2.2-3.8,2.6-5.3c-2.1-1-3.2-2.7-2.9-5c0.3-2.1,1.6-3.4,3.6-4c-0.3-2.1-1-4-1.9-5.9
				C-388.3,1010.1-388.8,1010.3-389.4,1010.3z M-399.1,1026c-3.9,3.4-9.8,2.9-13.2-1c-3.4-3.9-2.9-9.8,1-13.2c3.9-3.4,9.8-3,13.2,1
				C-394.7,1016.7-395.2,1022.6-399.1,1026z"/>
		</g>
	</g>
	<g id="XMLID_5321_" class="st3">
		<path id="XMLID_5361_" class="st5" d="M-427,1129.3c-54,0-97.9-43.9-97.9-97.9s43.9-97.9,97.9-97.9s97.9,43.9,97.9,97.9
			S-373,1129.3-427,1129.3z"/>
		<path id="XMLID_5358_" class="st4" d="M-427,930.3c-55.8,0-101.1,45.4-101.1,101.1s45.3,101.1,101.1,101.1s101.1-45.4,101.1-101.1
			C-325.9,975.7-371.2,930.3-427,930.3z M-427,936.6c52.3,0,94.7,42.4,94.7,94.7c0,17.5-4.8,33.9-13.1,48h-163.3
			c-8.3-14.1-13.1-30.5-13.1-48C-521.7,979.1-479.3,936.6-427,936.6z"/>
		<g id="XMLID_5350_">
			<path id="XMLID_5355_" class="st5" d="M-460.6,1087.6h13.5c4.5,0,7.3,3.1,7.3,6.9c0,2.9-1.2,5.1-3.9,6.3v0.1
				c2.7,0.7,3.5,3.3,3.6,5.8c0.1,1.6,0.1,4.5,1.1,5.9h-5.5c-0.7-1.6-0.6-4-0.9-6c-0.4-2.6-1.4-3.8-4.2-3.8h-5.5v9.8h-5.5V1087.6z
				 M-455.1,1098.9h6c2.4,0,3.8-1.1,3.8-3.6c0-2.4-1.3-3.5-3.8-3.5h-6V1098.9z"/>
			<path id="XMLID_5353_" class="st5" d="M-430.4,1092.2h-7.5v-4.6h20.4v4.6h-7.5v20.3h-5.5L-430.4,1092.2L-430.4,1092.2z"/>
			<path id="XMLID_5351_" class="st5" d="M-393.4,1103.1c0,6.7-4,10-10.7,10c-6.7,0-10.6-3.3-10.6-10v-15.5h5.5v15.5
				c0,2.7,0.7,5.4,5.1,5.4c3.9,0,5.2-1.7,5.2-5.4v-15.5h5.5V1103.1z"/>
		</g>
		<g id="XMLID_5322_">
			<g id="XMLID_5332_">
				<path id="XMLID_5342_" class="st4" d="M-361.2,1005.9h-6v-5.9c0-1.8-1.4-3.2-3.2-3.2h-63.8c-1,3-2.4,5.8-4.2,8.3v1h-0.7
					c-6.3,8.4-16.3,13.9-27.6,13.9c-11.3,0-21.3-5.4-27.6-13.8c-1.6,0.6-2.7,2.2-2.7,4v51.8c0,2.3,1.9,4.3,4.3,4.3h131.5
					c2.3,0,4.3-1.9,4.3-4.3v-51.8C-357,1007.9-358.9,1005.9-361.2,1005.9z M-427.8,1006.1h-7.7v-5.1h1.8l0.7-1.3l0,0l0,0h2.8l0,0
					l0,0l0.7,1.3h1.8L-427.8,1006.1L-427.8,1006.1z M-417.3,1006.1h-7.7v-5.1h1.8l0.7-1.3l0,0l0,0h2.8l0,0l0,0l0.7,1.3h1.8
					L-417.3,1006.1L-417.3,1006.1z M-406.8,1006.1h-7.7v-5.1h1.8l0.7-1.3l0,0l0,0h2.8l0,0l0,0l0.7,1.3h1.8L-406.8,1006.1
					L-406.8,1006.1z M-396.3,1006.1h-7.7v-5.1h1.8l0.7-1.3l0,0l0,0h2.8l0,0l0,0l0.7,1.3h1.8L-396.3,1006.1L-396.3,1006.1z
					 M-385.8,1006.1h-7.7v-5.1h1.8l0.7-1.3l0,0l0,0h2.8l0,0l0,0l0.7,1.3h1.8L-385.8,1006.1L-385.8,1006.1z M-375.3,1006.1h-7.7v-5.1
					h1.8l0.7-1.3l0,0l0,0h2.8l0,0l0,0l0.7,1.3h1.8L-375.3,1006.1L-375.3,1006.1z"/>
				<g id="XMLID_5333_">
					<g id="XMLID_5334_">
						<g id="XMLID_5335_">
							<path id="XMLID_85_" class="st4" d="M-466.7,1014.3c-15.8,0-28.7-12.9-28.7-28.7s12.9-28.7,28.7-28.7
								c15.8,0,28.7,12.8,28.7,28.7C-438,1001.5-450.9,1014.3-466.7,1014.3z M-466.7,961.2c-13.5,0-24.4,10.9-24.4,24.4
								s10.9,24.4,24.4,24.4s24.4-10.9,24.4-24.4S-453.3,961.2-466.7,961.2z"/>
						</g>
					</g>
				</g>
			</g>
			<g id="XMLID_5323_">
				<circle id="XMLID_5331_" class="st4" cx="-466.7" cy="985.6" r="4.5"/>
				<g id="XMLID_5324_">
					<path id="XMLID_5330_" class="st4" d="M-474.3,985.6c0-1.7,0.6-3.3,1.5-4.6l-2.1-1.6c-1.3,1.7-2.1,3.9-2.1,6.2s0.8,4.5,2.1,6.2
						l2.1-1.6C-473.7,988.9-474.3,987.3-474.3,985.6z"/>
					<path id="XMLID_5329_" class="st4" d="M-456.4,985.6c0-2.3-0.8-4.5-2.1-6.2l-2.1,1.6c1,1.3,1.5,2.9,1.5,4.6s-0.6,3.3-1.6,4.6
						l2.1,1.6C-457.2,990-456.4,987.9-456.4,985.6z"/>
					<path id="XMLID_5328_" class="st4" d="M-451.5,985.6c0-3.4-1.2-6.6-3.1-9.2l-2.1,1.6c1.6,2.1,2.6,4.7,2.6,7.5s-1,5.4-2.5,7.5
						l2.1,1.6C-452.6,992.2-451.5,989-451.5,985.6z"/>
					<path id="XMLID_5327_" class="st4" d="M-479.3,985.6c0-2.8,1-5.4,2.6-7.5l-2.1-1.6c-1.9,2.6-3.1,5.7-3.1,9.2
						c0,3.4,1.2,6.6,3.1,9.2l2.1-1.6C-478.3,991-479.3,988.4-479.3,985.6z"/>
					<path id="XMLID_5326_" class="st4" d="M-446.6,985.6c0-4.6-1.5-8.7-4.1-12.1l-2.1,1.6c2.2,2.9,3.6,6.6,3.6,10.5
						s-1.3,7.6-3.5,10.5l2.1,1.6C-448.1,994.3-446.6,990.1-446.6,985.6z"/>
					<path id="XMLID_5325_" class="st4" d="M-484.2,985.6c0-3.9,1.3-7.6,3.6-10.5l-2.1-1.6c-2.6,3.4-4.1,7.6-4.1,12.1
						c0,4.6,1.5,8.7,4.1,12.1l2.1-1.6C-482.9,993.1-484.2,989.5-484.2,985.6z"/>
				</g>
			</g>
		</g>
	</g>
</g>
<g id="XMLID_833_">
	<g id="XMLID_10037_">
		<g id="XMLID_40_">
			<path id="XMLID_43_" class="st4" d="M-64.5,519.8c-54,0-98-44-98-98s44-98,98-98s98,44,98,98S-10.5,519.8-64.5,519.8z"/>
		</g>
		<g id="XMLID_38_">
			<path id="XMLID_861_" class="st5" d="M-64.5,522.8c-55.7,0-101-45.3-101-101s45.3-101,101-101s101,45.3,101,101
				S-8.8,522.8-64.5,522.8z M-64.5,326.8c-52.4,0-95,42.6-95,95s42.6,95,95,95s95-42.6,95-95S-12.1,326.8-64.5,326.8z"/>
		</g>
	</g>
	<g id="XMLID_10032_">
		<path id="XMLID_854_" class="st5" d="M-64.5,351.4c-26.5,0-47.9,21.5-47.9,47.9v46.9l9.6,15.9l9.6-15.9l9.6,15.9l9.6-15.9l9.5,16
			l9.6-15.9l9.6,15.9l9.6-15.9l9.6,15.9l9.6-15.9v-47C-16.6,372.8-38,351.4-64.5,351.4z M-82.5,408.5c-5.3,0-9.7-6.4-9.7-14.4
			s4.3-14.4,9.7-14.4c5.3,0,9.7,6.4,9.7,14.4S-77.2,408.5-82.5,408.5z M-64.5,429.2c-3.3,0-6-4.2-6-9.4s2.7-9.4,6-9.4s6,4.2,6,9.4
			S-61.2,429.2-64.5,429.2z M-46.5,408.5c-5.3,0-9.7-6.4-9.7-14.4s4.3-14.4,9.7-14.4s9.7,6.4,9.7,14.4S-41.2,408.5-46.5,408.5z"/>
	</g>
	<g id="XMLID_9754_">
		<g id="XMLID_9764_">
			<path id="XMLID_851_" class="st5" d="M-98.6,496.1c-0.8,1-1.7,1.7-2.7,2.2c-1,0.4-1.9,0.6-2.9,0.6c-1.6,0-3-0.3-4.2-0.8
				s-2.3-1.3-3.2-2.2c-0.9-0.9-1.5-2.1-2-3.4s-0.7-2.7-0.7-4.1c0-1.5,0.2-2.9,0.7-4.2s1.1-2.4,2-3.4s1.9-1.7,3.2-2.3
				c1.2-0.6,2.6-0.8,4.2-0.8c1,0,2.1,0.2,3,0.5c1,0.3,1.9,0.8,2.7,1.4c0.8,0.6,1.4,1.4,2,2.3c0.6,0.9,0.8,1.9,0.9,3.1h-4.3
				c-0.3-1.1-0.8-2-1.5-2.6c-0.8-0.6-1.7-0.9-2.8-0.9c-1,0-1.9,0.2-2.6,0.6c-0.7,0.4-1.3,0.9-1.7,1.6s-0.8,1.4-1,2.2
				s-0.3,1.7-0.3,2.6c0,0.9,0.1,1.7,0.3,2.5s0.5,1.5,1,2.2c0.4,0.6,1,1.2,1.7,1.6c0.7,0.4,1.6,0.6,2.6,0.6c1.5,0,2.6-0.4,3.4-1.1
				c0.8-0.8,1.3-1.8,1.4-3.3h-4.5v-3.3h8.6v11h-2.9L-98.6,496.1z"/>
		</g>
		<g id="XMLID_9762_">
			<path id="XMLID_848_" class="st5" d="M-91.7,478h4.5v7.8h8.2V478h4.5v20.4H-79v-8.8h-8.2v8.8h-4.5V478z"/>
		</g>
		<g id="XMLID_9759_">
			<path id="XMLID_844_" class="st5" d="M-71.4,488.3c0-1.5,0.2-2.9,0.7-4.2s1.1-2.4,2-3.4s1.9-1.7,3.2-2.3c1.2-0.6,2.6-0.8,4.2-0.8
				c1.6,0,3,0.3,4.2,0.8c1.2,0.6,2.3,1.3,3.1,2.3c0.9,1,1.5,2.1,2,3.4s0.7,2.7,0.7,4.2s-0.2,2.9-0.7,4.1c-0.5,1.3-1.1,2.4-2,3.4
				s-1.9,1.7-3.1,2.2s-2.6,0.8-4.2,0.8c-1.6,0-3-0.3-4.2-0.8s-2.3-1.3-3.2-2.2s-1.5-2.1-2-3.4C-71.2,491.2-71.4,489.8-71.4,488.3z
				 M-67,488.3c0,0.9,0.1,1.7,0.3,2.5s0.5,1.5,1,2.2c0.4,0.6,1,1.2,1.7,1.6c0.7,0.4,1.6,0.6,2.6,0.6s1.9-0.2,2.6-0.6
				c0.7-0.4,1.3-0.9,1.7-1.6c0.4-0.6,0.8-1.4,1-2.2s0.3-1.6,0.3-2.5s-0.1-1.8-0.3-2.6s-0.5-1.6-1-2.2c-0.4-0.7-1-1.2-1.7-1.6
				c-0.7-0.4-1.6-0.6-2.6-0.6s-1.9,0.2-2.6,0.6c-0.7,0.4-1.3,0.9-1.7,1.6c-0.4,0.7-0.8,1.4-1,2.2C-66.9,486.5-67,487.4-67,488.3z"/>
		</g>
		<g id="XMLID_9757_">
			<path id="XMLID_841_" class="st5" d="M-45.3,491.6c0,0.7,0.1,1.3,0.4,1.7c0.2,0.5,0.6,0.9,1,1.2s0.9,0.5,1.4,0.7
				c0.6,0.1,1.1,0.2,1.7,0.2c0.4,0,0.8,0,1.3-0.1s0.9-0.2,1.3-0.4c0.4-0.2,0.7-0.5,1-0.8s0.4-0.8,0.4-1.3c0-0.6-0.2-1-0.5-1.3
				c-0.4-0.3-0.8-0.6-1.4-0.9c-0.6-0.2-1.2-0.4-1.9-0.6c-0.7-0.2-1.5-0.4-2.2-0.6c-0.8-0.2-1.5-0.4-2.2-0.7s-1.4-0.6-1.9-1.1
				c-0.6-0.4-1-1-1.4-1.6c-0.4-0.7-0.5-1.5-0.5-2.4c0-1,0.2-2,0.7-2.7c0.4-0.8,1-1.4,1.8-1.9c0.7-0.5,1.5-0.9,2.5-1.1
				c0.9-0.2,1.8-0.4,2.7-0.4c1.1,0,2.1,0.1,3.1,0.4c1,0.2,1.8,0.6,2.6,1.2c0.8,0.5,1.4,1.2,1.8,2s0.7,1.8,0.7,3h-4.6
				c0-0.6-0.2-1.1-0.4-1.5s-0.5-0.7-0.9-0.9s-0.8-0.4-1.2-0.5c-0.5-0.1-1-0.1-1.5-0.1c-0.4,0-0.7,0-1.1,0.1c-0.4,0.1-0.7,0.2-1,0.4
				s-0.5,0.4-0.7,0.7s-0.3,0.6-0.3,1.1c0,0.4,0.1,0.7,0.2,1c0.2,0.2,0.5,0.5,0.9,0.7s1.1,0.4,1.9,0.6c0.8,0.2,1.8,0.5,3.1,0.8
				c0.4,0.1,0.9,0.2,1.6,0.4c0.7,0.2,1.3,0.5,2,1c0.7,0.4,1.2,1,1.7,1.8c0.5,0.7,0.7,1.7,0.7,2.8c0,0.9-0.2,1.8-0.5,2.6
				c-0.4,0.8-0.9,1.5-1.6,2.1c-0.7,0.6-1.6,1-2.7,1.4c-1.1,0.3-2.3,0.5-3.7,0.5c-1.1,0-2.2-0.1-3.3-0.4c-1.1-0.3-2-0.7-2.8-1.3
				s-1.4-1.3-1.9-2.3c-0.5-0.9-0.7-2-0.7-3.3h4.4L-45.3,491.6L-45.3,491.6z"/>
		</g>
		<g id="XMLID_9755_">
			<path id="XMLID_838_" class="st5" d="M-25.3,481.8h-6.1V478h16.7v3.8h-6.1v16.6h-4.5L-25.3,481.8L-25.3,481.8z"/>
		</g>
	</g>
</g>
<g id="Layer_1_1_" class="st0">
	<g id="XMLID_17583_" class="st3">
		<circle id="XMLID_17587_" class="st4" cx="-499.3" cy="958.4" r="43.7"/>
	</g>
</g>
<g id="Layer_3_copy" class="st0">
	<g id="XMLID_31_" class="st3">
		<g id="XMLID_32_">
			<path id="XMLID_72_" class="st5" d="M-499.3,1000.6c-23.3,0-42.2-18.9-42.2-42.2s18.9-42.2,42.2-42.2s42.2,18.9,42.2,42.2
				C-457.1,981.7-476,1000.6-499.3,1000.6z"/>
			<path id="XMLID_69_" class="st4" d="M-499.3,917.7c22.4,0,40.7,18.3,40.7,40.7s-18.2,40.7-40.7,40.7s-40.7-18.2-40.7-40.7
				S-521.7,917.7-499.3,917.7 M-499.3,914.7c-24.1,0-43.7,19.6-43.7,43.7c0,24.1,19.6,43.7,43.7,43.7c24.1,0,43.7-19.6,43.7-43.7
				C-455.6,934.3-475.1,914.7-499.3,914.7L-499.3,914.7z"/>
		</g>
	</g>
</g>
<g id="Layer_1_copy" class="st0">
	<g id="XMLID_29_" class="st3">
		<g id="XMLID_30_">
			<path id="XMLID_67_" class="st4" d="M-499.3,1000.6c-23.3,0-42.2-18.9-42.2-42.2s18.9-42.2,42.2-42.2s42.2,18.9,42.2,42.2
				C-457.1,981.7-476,1000.6-499.3,1000.6z"/>
			<path id="XMLID_64_" class="st5" d="M-499.3,917.7c22.4,0,40.7,18.3,40.7,40.7s-18.2,40.7-40.7,40.7s-40.7-18.2-40.7-40.7
				S-521.7,917.7-499.3,917.7 M-499.3,914.7c-24.1,0-43.7,19.6-43.7,43.7c0,24.1,19.6,43.7,43.7,43.7c24.1,0,43.7-19.6,43.7-43.7
				C-455.6,934.3-475.1,914.7-499.3,914.7L-499.3,914.7z"/>
		</g>
	</g>
</g>
</svg>
