<?xml version="1.0" encoding="utf-8"?>
<!-- Generator: Adobe Illustrator 19.0.0, SVG Export Plug-In . SVG Version: 6.00 Build 0)  -->
<svg version="1.1" xmlns="http://www.w3.org/2000/svg" xmlns:xlink="http://www.w3.org/1999/xlink" x="0px" y="0px"
	 viewBox="0 0 232 232" style="enable-background:new 0 0 232 232;" xml:space="preserve">
<style type="text/css">
	.st0{display:none;}
	.st1{display:inline;}
	.st2{fill:#FFFFFF;}
	.st3{fill:black;}
</style>
<g id="Layer_4" class="st0">
	<g id="XMLID_528_" class="st1">
		<g id="XMLID_8831_">
			<path id="XMLID_8835_" class="st2" d="M115.9,214.8c-54,0-98-44-98-98c0-54,44-98,98-98s98,44,98,98
				C213.9,170.8,169.9,214.8,115.9,214.8z"/>
			<path id="XMLID_8832_" class="st3" d="M115.9,22c52.4,0,94.8,42.4,94.8,94.8s-42.4,94.8-94.8,94.8c-52.4,0-94.8-42.4-94.8-94.8
				S63.6,22,115.9,22 M115.9,15.6C60.1,15.6,14.7,61,14.7,116.8s45.4,101.2,101.2,101.2s101.2-45.4,101.2-101.2
				S171.7,15.6,115.9,15.6L115.9,15.6z"/>
		</g>
		<g id="XMLID_8827_">
			<path id="XMLID_8828_" class="st3" d="M85,101.8c0.1-4.5,0.9-8.7,2.3-12.5c1.5-3.8,3.5-7,6.2-9.8c2.6-2.8,5.8-4.9,9.6-6.5
				c3.7-1.6,7.9-2.3,12.5-2.3c6,0,10.9,0.8,14.9,2.5c4,1.6,7.2,3.7,9.6,6.1c2.4,2.4,4.2,5.1,5.2,7.9c1,2.8,1.6,5.4,1.6,7.9
				c0,4-0.5,7.3-1.6,9.9c-1,2.6-2.3,4.8-3.9,6.7s-3.3,3.4-5.2,4.7c-1.9,1.3-3.7,2.6-5.3,3.9c-1.7,1.3-3.2,2.8-4.5,4.5
				c-1.3,1.7-2.1,3.8-2.5,6.3v4.8h-17v-5.7c0.3-3.6,0.9-6.6,2.1-9.1c1.1-2.4,2.5-4.5,4-6.2c1.5-1.7,3.1-3.2,4.8-4.5
				c1.7-1.3,3.2-2.5,4.7-3.8c1.4-1.3,2.6-2.6,3.5-4.2c0.9-1.5,1.3-3.4,1.2-5.7c0-3.9-0.9-6.7-2.8-8.6c-1.9-1.8-4.5-2.8-7.9-2.8
				c-2.3,0-4.2,0.4-5.9,1.3c-1.6,0.9-3,2.1-4,3.5c-1,1.5-1.8,3.2-2.3,5.2c-0.5,2-0.8,4.1-0.8,6.4H85z M105.2,143.4H125v19.4h-19.8
				V143.4z"/>
		</g>
	</g>
</g>
<g id="Layer_2">
	<g id="XMLID_8928_">
		<path id="XMLID_8941_" class="st2" d="M63.7,173.4h5.6l4.3,12.5h0l4-12.5h5.6v18.2h-3.8v-12.9h0l-4.5,12.9H72l-4.5-12.8h0v12.8
			h-3.8V173.4z"/>
		<path id="XMLID_8938_" class="st2" d="M91.9,173.4H96l6.8,18.2h-4.2l-1.4-4.1h-6.8l-1.4,4.1h-4L91.9,173.4z M91.5,184.6h4.7
			l-2.3-6.7h-0.1L91.5,184.6z"/>
		<path id="XMLID_8936_" class="st2" d="M107.2,185.6c0,0.6,0.1,1.1,0.3,1.6c0.2,0.4,0.5,0.8,0.9,1c0.4,0.3,0.8,0.5,1.3,0.6
			c0.5,0.1,1,0.2,1.5,0.2c0.4,0,0.7,0,1.2-0.1c0.4-0.1,0.8-0.2,1.1-0.3c0.4-0.2,0.7-0.4,0.9-0.7c0.2-0.3,0.4-0.7,0.4-1.1
			c0-0.5-0.2-0.9-0.5-1.2c-0.3-0.3-0.7-0.6-1.2-0.8c-0.5-0.2-1.1-0.4-1.7-0.5c-0.6-0.2-1.3-0.3-2-0.5c-0.7-0.2-1.3-0.4-2-0.6
			c-0.6-0.2-1.2-0.6-1.7-1c-0.5-0.4-0.9-0.9-1.2-1.5c-0.3-0.6-0.5-1.3-0.5-2.1c0-0.9,0.2-1.7,0.6-2.4c0.4-0.7,0.9-1.3,1.6-1.7
			c0.6-0.5,1.4-0.8,2.2-1c0.8-0.2,1.6-0.3,2.5-0.3c1,0,1.9,0.1,2.7,0.3c0.9,0.2,1.7,0.6,2.3,1c0.7,0.5,1.2,1.1,1.6,1.8
			c0.4,0.7,0.6,1.6,0.6,2.7h-3.9c0-0.5-0.1-1-0.3-1.4c-0.2-0.4-0.5-0.6-0.8-0.8c-0.3-0.2-0.7-0.3-1.1-0.4c-0.4-0.1-0.9-0.1-1.4-0.1
			c-0.3,0-0.6,0-1,0.1c-0.3,0.1-0.6,0.2-0.9,0.4c-0.3,0.2-0.5,0.4-0.7,0.6c-0.2,0.3-0.3,0.6-0.3,1c0,0.4,0.1,0.6,0.2,0.9
			c0.1,0.2,0.4,0.4,0.8,0.6c0.4,0.2,1,0.4,1.7,0.6c0.7,0.2,1.6,0.4,2.8,0.7c0.3,0.1,0.8,0.2,1.4,0.4c0.6,0.2,1.2,0.5,1.8,0.9
			c0.6,0.4,1.1,0.9,1.5,1.6c0.4,0.7,0.7,1.5,0.7,2.5c0,0.8-0.2,1.6-0.5,2.3c-0.3,0.7-0.8,1.3-1.4,1.9c-0.6,0.5-1.4,0.9-2.4,1.2
			c-0.9,0.3-2,0.4-3.3,0.4c-1,0-2-0.1-2.9-0.4c-0.9-0.2-1.8-0.6-2.5-1.2c-0.7-0.5-1.3-1.2-1.7-2c-0.4-0.8-0.6-1.8-0.6-2.9H107.2z"/>
		<path id="XMLID_8934_" class="st2" d="M125.1,176.8h-5.5v-3.4h14.9v3.4h-5.5v14.9h-4V176.8z"/>
		<path id="XMLID_8932_" class="st2" d="M136.6,173.4h13.6v3.4h-9.6v3.9h8.8v3.1h-8.8v4.5h9.8v3.4h-13.8V173.4z"/>
		<path id="XMLID_8929_" class="st2" d="M153.2,173.4h9.8c0.8,0,1.6,0.1,2.2,0.4c0.7,0.3,1.2,0.6,1.7,1.1c0.5,0.5,0.8,1,1.1,1.6
			c0.2,0.6,0.4,1.3,0.4,2c0,1.1-0.2,2-0.7,2.8c-0.5,0.8-1.2,1.4-2.2,1.8v0.1c0.5,0.1,0.9,0.3,1.2,0.6c0.3,0.3,0.6,0.6,0.8,1
			c0.2,0.4,0.4,0.8,0.4,1.3c0.1,0.5,0.2,0.9,0.2,1.4c0,0.3,0,0.6,0.1,1c0,0.4,0,0.8,0.1,1.2c0,0.4,0.1,0.8,0.2,1.2
			c0.1,0.4,0.2,0.7,0.4,0.9h-4c-0.2-0.6-0.4-1.3-0.4-2.1c-0.1-0.8-0.1-1.6-0.2-2.3c-0.1-1-0.4-1.7-0.9-2.1c-0.4-0.4-1.2-0.7-2.2-0.7
			h-4v7.1h-4V173.4z M157.2,181.7h4.4c0.9,0,1.6-0.2,2.1-0.6s0.7-1.1,0.7-2c0-0.9-0.2-1.5-0.7-1.9s-1.2-0.6-2.1-0.6h-4.4V181.7z"/>
	</g>
	<g id="XMLID_3_">
		<g id="XMLID_10027_">
			<path id="XMLID_10031_" class="st3" d="M115.9,214.8c-54,0-98-44-98-98c0-54,44-98,98-98s98,44,98,98
				C213.9,170.8,169.9,214.8,115.9,214.8z"/>
			<path id="XMLID_10028_" class="st2" d="M115.9,22c52.4,0,94.8,42.4,94.8,94.8s-42.4,94.8-94.8,94.8c-52.4,0-94.8-42.4-94.8-94.8
				S63.6,22,115.9,22 M115.9,15.6C60.1,15.6,14.7,61,14.7,116.8s45.4,101.2,101.2,101.2s101.2-45.4,101.2-101.2
				S171.7,15.6,115.9,15.6L115.9,15.6z"/>
		</g>
		<g id="XMLID_10023_">
			<path id="XMLID_10024_" class="st2" d="M85,101.8c0.1-4.5,0.9-8.7,2.3-12.5c1.5-3.8,3.5-7,6.2-9.8c2.6-2.8,5.8-4.9,9.6-6.5
				c3.7-1.6,7.9-2.3,12.5-2.3c6,0,10.9,0.8,14.9,2.5c4,1.6,7.2,3.7,9.6,6.1c2.4,2.4,4.2,5.1,5.2,7.9c1,2.8,1.6,5.4,1.6,7.9
				c0,4-0.5,7.3-1.6,9.9c-1,2.6-2.3,4.8-3.9,6.7s-3.3,3.4-5.2,4.7c-1.9,1.3-3.7,2.6-5.3,3.9c-1.7,1.3-3.2,2.8-4.5,4.5
				c-1.3,1.7-2.1,3.8-2.5,6.3v4.8h-17v-5.7c0.3-3.6,0.9-6.6,2.1-9.1c1.1-2.4,2.5-4.5,4-6.2c1.5-1.7,3.1-3.2,4.8-4.5
				c1.7-1.3,3.2-2.5,4.7-3.8c1.4-1.3,2.6-2.6,3.5-4.2c0.9-1.5,1.3-3.4,1.2-5.7c0-3.9-0.9-6.7-2.8-8.6c-1.9-1.8-4.5-2.8-7.9-2.8
				c-2.3,0-4.2,0.4-5.9,1.3c-1.6,0.9-3,2.1-4,3.5c-1,1.5-1.8,3.2-2.3,5.2c-0.5,2-0.8,4.1-0.8,6.4H85z M105.2,143.4H125v19.4h-19.8
				V143.4z"/>
		</g>
	</g>
</g>
<g id="Layer_3" class="st0">
	<g id="XMLID_1_" class="st1">
		<circle id="XMLID_2_" class="st2" cx="43.7" cy="43.7" r="43.7"/>
	</g>
</g>
<g id="Layer_1" class="st0">
	<g id="XMLID_17583_" class="st1">
		<circle id="XMLID_17587_" class="st3" cx="43.7" cy="43.7" r="43.7"/>
	</g>
</g>
<g id="Layer_3_copy" class="st0">
	<g id="XMLID_31_" class="st1">
		<g id="XMLID_32_">
			<path id="XMLID_72_" class="st2" d="M43.7,85.9C20.4,85.9,1.5,67,1.5,43.7S20.4,1.5,43.7,1.5s42.2,18.9,42.2,42.2
				S67,85.9,43.7,85.9z"/>
			<path id="XMLID_69_" class="st3" d="M43.7,3c22.4,0,40.7,18.3,40.7,40.7S66.2,84.4,43.7,84.4S3,66.2,3,43.7S21.3,3,43.7,3
				 M43.7,0C19.6,0,0,19.6,0,43.7s19.6,43.7,43.7,43.7s43.7-19.6,43.7-43.7S67.9,0,43.7,0L43.7,0z"/>
		</g>
	</g>
</g>
<g id="Layer_1_copy" class="st0">
	<g id="XMLID_29_" class="st1">
		<g id="XMLID_30_">
			<path id="XMLID_67_" class="st3" d="M43.7,85.9C20.4,85.9,1.5,67,1.5,43.7S20.4,1.5,43.7,1.5s42.2,18.9,42.2,42.2
				S67,85.9,43.7,85.9z"/>
			<path id="XMLID_64_" class="st2" d="M43.7,3c22.4,0,40.7,18.3,40.7,40.7S66.2,84.4,43.7,84.4S3,66.2,3,43.7S21.3,3,43.7,3
				 M43.7,0C19.6,0,0,19.6,0,43.7s19.6,43.7,43.7,43.7s43.7-19.6,43.7-43.7S67.9,0,43.7,0L43.7,0z"/>
		</g>
	</g>
</g>
</svg>
