<?xml version="1.0" encoding="utf-8"?>
<!-- Generator: Adobe Illustrator 19.0.0, SVG Export Plug-In . SVG Version: 6.00 Build 0)  -->
<svg version="1.1" id="Layer_1" xmlns="http://www.w3.org/2000/svg" xmlns:xlink="http://www.w3.org/1999/xlink" x="0px" y="0px"
	 viewBox="-181 304.9 232 232" style="enable-background:new -181 304.9 232 232;" xml:space="preserve">
<style type="text/css">
	.st0{display:none;}
	.st1{display:inline;fill:#FFFFFF;}
	.st2{display:inline;fill:black;}
	.st3{display:inline;}
	.st4{fill:black;}
	.st5{fill:#FFFFFF;}
</style>
<g id="Layer_2" class="st0">
	<path id="XMLID_9876_" class="st1" d="M-65.1,519.7c-54,0-98-44-98-98s44-98,98-98s98,44,98,98S-11.1,519.7-65.1,519.7z"/>
	<polygon id="XMLID_9875_" class="st2" points="-41.3,463 -88.9,463 -82.2,449.2 -48,449.2 	"/>
	<path id="XMLID_9874_" class="st2" d="M-7.6,362.9h-60.5c5.3,2.6,9.8,6.6,13,11.5h43.6v58.8h-107.3v-58.8h8.3
		c3.2-4.9,7.7-8.9,13-11.5h-25.1c-4.2,0-7.7,3.5-7.7,7.7v66.5c0,4.2,3.5,7.7,7.7,7.7h115c4.2,0,7.7-3.5,7.7-7.7v-66.5
		C0.1,366.3-3.4,362.9-7.6,362.9z"/>
	<path id="XMLID_9871_" class="st2" d="M-65.1,320.5c-55.8,0-101.2,45.4-101.2,101.2s45.4,101.2,101.2,101.2S36.1,477.5,36.1,421.7
		S-9.3,320.5-65.1,320.5z M-146.5,470.1v0.1c-8.5-14.2-13.4-30.8-13.4-48.5c0-52.4,42.4-94.8,94.8-94.8s94.8,42.4,94.8,94.8
		c0,17.7-4.9,34.3-13.3,48.4L-146.5,470.1L-146.5,470.1z"/>
	<g id="XMLID_9864_" class="st3">
		<path id="XMLID_9868_" class="st4" d="M-58,386.9c-2.4-0.8-3.9-2.4-4.4-4.9c-0.5-2.4,0.3-4.5,2.1-6.2c0.4-0.3,0.4-0.5,0.1-0.9
			c-1.5-2.2-3.3-4.2-5.5-5.8c-2.3,2.3-5,3-7.9,1.5c-2.8-1.4-3.8-3.8-3.5-6.9c-2.8-0.6-5.7-0.7-8.6-0.4c0,3.2-1.3,5.6-4.4,6.7
			c-3,1.1-5.5,0.1-7.5-2.3c-2.4,1.6-4.5,3.5-6.3,5.8c2.3,2.3,3,5,1.5,8c-1.4,2.7-3.8,3.7-6.8,3.5c-0.6,2.8-0.7,5.7-0.3,8.6
			c1.5-0.1,2.9,0.3,4.1,1.1c3.6,2.4,3.9,7.5,0.6,10.3c-0.3,0.2-0.3,0.4-0.1,0.7c1.5,2.1,4,4.8,5.6,5.9c2.2-2.1,4.7-2.8,7.6-1.5
			c2.8,1.3,4,3.7,3.8,6.8c1.9,0.4,3.8,0.6,5.8,0.5c0.9,0,1.8-0.1,2.7-0.1h0.1c-0.1-3.2,1.7-5.7,4.7-6.6c2.6-0.7,4.8,0,6.6,1.9
			c0.3,0.3,0.4,0.3,0.7,0.1c2.1-1.4,4.7-3.8,5.9-5.5c-2.2-2.3-2.8-5-1.3-7.9c1.4-2.6,3.7-3.7,6.7-3.4c0.6-2.8,0.7-5.6,0.4-8.5
			C-56.4,387.1-57.2,387.1-58,386.9z M-78.2,402.4c-6.7,2.4-14.1-1-16.5-7.7c-2.4-6.7,1-14.1,7.7-16.5c6.7-2.5,14.1,1,16.6,7.7
			C-68,392.5-71.5,399.9-78.2,402.4z"/>
		<path id="XMLID_9865_" class="st4" d="M-27.4,400.5c-1.8,0.1-3.3-0.6-4.3-2.2c-1-1.5-1-3.1-0.2-4.7c0.2-0.3,0.1-0.4-0.2-0.6
			c-1.6-1.1-3.3-2-5.2-2.6c-1,2.1-2.6,3.3-5,3.1c-2.2-0.2-3.6-1.6-4.2-3.8c-2.1,0.3-4,1-5.9,1.9c0.8,2.2,0.5,4.1-1.3,5.6
			s-3.7,1.5-5.7,0.3c-1.2,1.7-2.2,3.6-2.8,5.6c2.2,1,3.3,2.6,3.1,5c-0.2,2.2-1.6,3.5-3.7,4.1c0.3,2.1,1,4,2,5.9c1-0.4,2-0.5,3.1-0.3
			c3,0.7,4.5,4.1,3,6.8c-0.1,0.2-0.1,0.3,0.1,0.5c1.6,1.1,3.9,2.2,5.3,2.6c0.9-2,2.5-3.1,4.8-3c2.3,0.2,3.6,1.5,4.3,3.6
			c1.4-0.2,2.7-0.6,4-1.1c0.6-0.2,1.2-0.5,1.8-0.8l0,0c-0.9-2.1-0.3-4.3,1.5-5.7c1.6-1.1,3.3-1.2,5-0.4c0.3,0.1,0.4,0.1,0.5-0.1
			c1.1-1.5,2.2-3.8,2.6-5.3c-2.1-1-3.2-2.7-2.9-5c0.3-2.1,1.6-3.4,3.6-4c-0.3-2.1-1-4-1.9-5.9C-26.3,400.3-26.8,400.5-27.4,400.5z
			 M-37.1,416.2c-3.9,3.4-9.8,2.9-13.2-1c-3.4-3.9-2.9-9.8,1-13.2c3.9-3.4,9.8-3,13.2,1C-32.7,406.9-33.2,412.8-37.1,416.2z"/>
	</g>
	<g id="XMLID_8928_" class="st3">
		<path id="XMLID_8941_" class="st5" d="M-117.3,478.3h5.6l4.3,12.5l0,0l4-12.5h5.6v18.2h-3.8v-12.9l0,0l-4.5,12.9h-2.9l-4.5-12.8
			l0,0v12.8h-3.8V478.3z"/>
		<path id="XMLID_8938_" class="st5" d="M-89.1,478.3h4.1l6.8,18.2h-4.2l-1.4-4.1h-6.8l-1.4,4.1h-4L-89.1,478.3z M-89.5,489.5h4.7
			l-2.3-6.7h-0.1L-89.5,489.5z"/>
		<path id="XMLID_8936_" class="st5" d="M-73.8,490.5c0,0.6,0.1,1.1,0.3,1.6c0.2,0.4,0.5,0.8,0.9,1c0.4,0.3,0.8,0.5,1.3,0.6
			s1,0.2,1.5,0.2c0.4,0,0.7,0,1.2-0.1c0.4-0.1,0.8-0.2,1.1-0.3c0.4-0.2,0.7-0.4,0.9-0.7c0.2-0.3,0.4-0.7,0.4-1.1
			c0-0.5-0.2-0.9-0.5-1.2c-0.3-0.3-0.7-0.6-1.2-0.8c-0.5-0.2-1.1-0.4-1.7-0.5c-0.6-0.2-1.3-0.3-2-0.5c-0.7-0.2-1.3-0.4-2-0.6
			c-0.6-0.2-1.2-0.6-1.7-1s-0.9-0.9-1.2-1.5c-0.3-0.6-0.5-1.3-0.5-2.1c0-0.9,0.2-1.7,0.6-2.4c0.4-0.7,0.9-1.3,1.6-1.7
			c0.6-0.5,1.4-0.8,2.2-1c0.8-0.2,1.6-0.3,2.5-0.3c1,0,1.9,0.1,2.7,0.3c0.9,0.2,1.7,0.6,2.3,1c0.7,0.5,1.2,1.1,1.6,1.8
			c0.4,0.7,0.6,1.6,0.6,2.7h-3.9c0-0.5-0.1-1-0.3-1.4c-0.2-0.4-0.5-0.6-0.8-0.8c-0.3-0.2-0.7-0.3-1.1-0.4s-0.9-0.1-1.4-0.1
			c-0.3,0-0.6,0-1,0.1c-0.3,0.1-0.6,0.2-0.9,0.4c-0.3,0.2-0.5,0.4-0.7,0.6c-0.2,0.3-0.3,0.6-0.3,1s0.1,0.6,0.2,0.9
			c0.1,0.2,0.4,0.4,0.8,0.6s1,0.4,1.7,0.6s1.6,0.4,2.8,0.7c0.3,0.1,0.8,0.2,1.4,0.4c0.6,0.2,1.2,0.5,1.8,0.9
			c0.6,0.4,1.1,0.9,1.5,1.6c0.4,0.7,0.7,1.5,0.7,2.5c0,0.8-0.2,1.6-0.5,2.3c-0.3,0.7-0.8,1.3-1.4,1.9c-0.6,0.5-1.4,0.9-2.4,1.2
			c-0.9,0.3-2,0.4-3.3,0.4c-1,0-2-0.1-2.9-0.4c-0.9-0.2-1.8-0.6-2.5-1.2c-0.7-0.5-1.3-1.2-1.7-2c-0.4-0.8-0.6-1.8-0.6-2.9h3.9V490.5
			z"/>
		<path id="XMLID_8934_" class="st5" d="M-55.9,481.7h-5.5v-3.4h14.9v3.4H-52v14.9h-4L-55.9,481.7L-55.9,481.7z"/>
		<path id="XMLID_8932_" class="st5" d="M-44.4,478.3h13.6v3.4h-9.6v3.9h8.8v3.1h-8.8v4.5h9.8v3.4h-13.8V478.3z"/>
		<path id="XMLID_8929_" class="st5" d="M-27.8,478.3h9.8c0.8,0,1.6,0.1,2.2,0.4c0.7,0.3,1.2,0.6,1.7,1.1s0.8,1,1.1,1.6
			c0.2,0.6,0.4,1.3,0.4,2c0,1.1-0.2,2-0.7,2.8c-0.5,0.8-1.2,1.4-2.2,1.8v0.1c0.5,0.1,0.9,0.3,1.2,0.6c0.3,0.3,0.6,0.6,0.8,1
			s0.4,0.8,0.4,1.3c0.1,0.5,0.2,0.9,0.2,1.4c0,0.3,0,0.6,0.1,1c0,0.4,0,0.8,0.1,1.2c0,0.4,0.1,0.8,0.2,1.2c0.1,0.4,0.2,0.7,0.4,0.9
			h-4c-0.2-0.6-0.4-1.3-0.4-2.1c-0.1-0.8-0.1-1.6-0.2-2.3c-0.1-1-0.4-1.7-0.9-2.1c-0.4-0.4-1.2-0.7-2.2-0.7h-4v7.1h-4L-27.8,478.3
			L-27.8,478.3z M-23.8,486.6h4.4c0.9,0,1.6-0.2,2.1-0.6c0.5-0.4,0.7-1.1,0.7-2s-0.2-1.5-0.7-1.9s-1.2-0.6-2.1-0.6h-4.4V486.6z"/>
	</g>
	<g id="XMLID_9394_" class="st3">
		<path id="XMLID_9422_" class="st4" d="M-65.1,519.7c-54,0-98-44-98-98s44-98,98-98s98,44,98,98S-11.1,519.7-65.1,519.7z"/>
		<polygon id="XMLID_9421_" class="st5" points="-41.3,463 -88.9,463 -82.2,449.2 -48,449.2 		"/>
		<path id="XMLID_9420_" class="st5" d="M-7.6,362.9h-60.5c5.3,2.6,9.8,6.6,13,11.5h43.6v58.8h-107.3v-58.8h8.3
			c3.2-4.9,7.7-8.9,13-11.5h-25.1c-4.2,0-7.7,3.5-7.7,7.7v66.5c0,4.2,3.5,7.7,7.7,7.7h115c4.2,0,7.7-3.5,7.7-7.7v-66.5
			C0.1,366.3-3.4,362.9-7.6,362.9z"/>
		<path id="XMLID_9417_" class="st5" d="M-65.1,320.5c-55.8,0-101.2,45.4-101.2,101.2s45.4,101.2,101.2,101.2S36.1,477.5,36.1,421.7
			S-9.3,320.5-65.1,320.5z M-146.5,470.1v0.1c-8.5-14.2-13.4-30.8-13.4-48.5c0-52.4,42.4-94.8,94.8-94.8s94.8,42.4,94.8,94.8
			c0,17.7-4.9,34.3-13.3,48.4L-146.5,470.1L-146.5,470.1z"/>
		<g id="XMLID_9402_">
			<path id="XMLID_9415_" class="st4" d="M-117.3,478.3h5.6l4.3,12.5l0,0l4-12.5h5.6v18.2h-3.8v-12.9l0,0l-4.5,12.9h-2.9l-4.5-12.8
				l0,0v12.8h-3.8V478.3z"/>
			<path id="XMLID_9412_" class="st4" d="M-89.1,478.3h4.1l6.8,18.2h-4.2l-1.4-4.1h-6.8l-1.4,4.1h-4L-89.1,478.3z M-89.5,489.5h4.7
				l-2.3-6.7h-0.1L-89.5,489.5z"/>
			<path id="XMLID_9410_" class="st4" d="M-73.8,490.5c0,0.6,0.1,1.1,0.3,1.6c0.2,0.4,0.5,0.8,0.9,1c0.4,0.3,0.8,0.5,1.3,0.6
				s1,0.2,1.5,0.2c0.4,0,0.7,0,1.2-0.1c0.4-0.1,0.8-0.2,1.1-0.3c0.4-0.2,0.7-0.4,0.9-0.7c0.2-0.3,0.4-0.7,0.4-1.1
				c0-0.5-0.2-0.9-0.5-1.2c-0.3-0.3-0.7-0.6-1.2-0.8c-0.5-0.2-1.1-0.4-1.7-0.5c-0.6-0.2-1.3-0.3-2-0.5c-0.7-0.2-1.3-0.4-2-0.6
				c-0.6-0.2-1.2-0.6-1.7-1s-0.9-0.9-1.2-1.5c-0.3-0.6-0.5-1.3-0.5-2.1c0-0.9,0.2-1.7,0.6-2.4c0.4-0.7,0.9-1.3,1.6-1.7
				c0.6-0.5,1.4-0.8,2.2-1c0.8-0.2,1.6-0.3,2.5-0.3c1,0,1.9,0.1,2.7,0.3c0.9,0.2,1.7,0.6,2.3,1c0.7,0.5,1.2,1.1,1.6,1.8
				c0.4,0.7,0.6,1.6,0.6,2.7h-3.9c0-0.5-0.1-1-0.3-1.4c-0.2-0.4-0.5-0.6-0.8-0.8c-0.3-0.2-0.7-0.3-1.1-0.4s-0.9-0.1-1.4-0.1
				c-0.3,0-0.6,0-1,0.1c-0.3,0.1-0.6,0.2-0.9,0.4c-0.3,0.2-0.5,0.4-0.7,0.6c-0.2,0.3-0.3,0.6-0.3,1s0.1,0.6,0.2,0.9
				c0.1,0.2,0.4,0.4,0.8,0.6s1,0.4,1.7,0.6s1.6,0.4,2.8,0.7c0.3,0.1,0.8,0.2,1.4,0.4c0.6,0.2,1.2,0.5,1.8,0.9
				c0.6,0.4,1.1,0.9,1.5,1.6c0.4,0.7,0.7,1.5,0.7,2.5c0,0.8-0.2,1.6-0.5,2.3c-0.3,0.7-0.8,1.3-1.4,1.9c-0.6,0.5-1.4,0.9-2.4,1.2
				c-0.9,0.3-2,0.4-3.3,0.4c-1,0-2-0.1-2.9-0.4c-0.9-0.2-1.8-0.6-2.5-1.2c-0.7-0.5-1.3-1.2-1.7-2c-0.4-0.8-0.6-1.8-0.6-2.9h3.9
				V490.5z"/>
			<path id="XMLID_9408_" class="st4" d="M-55.9,481.7h-5.5v-3.4h14.9v3.4H-52v14.9h-4L-55.9,481.7L-55.9,481.7z"/>
			<path id="XMLID_9406_" class="st4" d="M-44.4,478.3h13.6v3.4h-9.6v3.9h8.8v3.1h-8.8v4.5h9.8v3.4h-13.8V478.3z"/>
			<path id="XMLID_9403_" class="st4" d="M-27.8,478.3h9.8c0.8,0,1.6,0.1,2.2,0.4c0.7,0.3,1.2,0.6,1.7,1.1s0.8,1,1.1,1.6
				c0.2,0.6,0.4,1.3,0.4,2c0,1.1-0.2,2-0.7,2.8c-0.5,0.8-1.2,1.4-2.2,1.8v0.1c0.5,0.1,0.9,0.3,1.2,0.6c0.3,0.3,0.6,0.6,0.8,1
				s0.4,0.8,0.4,1.3c0.1,0.5,0.2,0.9,0.2,1.4c0,0.3,0,0.6,0.1,1c0,0.4,0,0.8,0.1,1.2c0,0.4,0.1,0.8,0.2,1.2c0.1,0.4,0.2,0.7,0.4,0.9
				h-4c-0.2-0.6-0.4-1.3-0.4-2.1c-0.1-0.8-0.1-1.6-0.2-2.3c-0.1-1-0.4-1.7-0.9-2.1c-0.4-0.4-1.2-0.7-2.2-0.7h-4v7.1h-4L-27.8,478.3
				L-27.8,478.3z M-23.8,486.6h4.4c0.9,0,1.6-0.2,2.1-0.6c0.5-0.4,0.7-1.1,0.7-2s-0.2-1.5-0.7-1.9s-1.2-0.6-2.1-0.6h-4.4V486.6z"/>
		</g>
		<g id="XMLID_9395_">
			<path id="XMLID_9399_" class="st5" d="M-58,386.9c-2.4-0.8-3.9-2.4-4.4-4.9c-0.5-2.4,0.3-4.5,2.1-6.2c0.4-0.3,0.4-0.5,0.1-0.9
				c-1.5-2.2-3.3-4.2-5.5-5.8c-2.3,2.3-5,3-7.9,1.5c-2.8-1.4-3.8-3.8-3.5-6.9c-2.8-0.6-5.7-0.7-8.6-0.4c0,3.2-1.3,5.6-4.4,6.7
				c-3,1.1-5.5,0.1-7.5-2.3c-2.4,1.6-4.5,3.5-6.3,5.8c2.3,2.3,3,5,1.5,8c-1.4,2.7-3.8,3.7-6.8,3.5c-0.6,2.8-0.7,5.7-0.3,8.6
				c1.5-0.1,2.9,0.3,4.1,1.1c3.6,2.4,3.9,7.5,0.6,10.3c-0.3,0.2-0.3,0.4-0.1,0.7c1.5,2.1,4,4.8,5.6,5.9c2.2-2.1,4.7-2.8,7.6-1.5
				c2.8,1.3,4,3.7,3.8,6.8c1.9,0.4,3.8,0.6,5.8,0.5c0.9,0,1.8-0.1,2.7-0.1h0.1c-0.1-3.2,1.7-5.7,4.7-6.6c2.6-0.7,4.8,0,6.6,1.9
				c0.3,0.3,0.4,0.3,0.7,0.1c2.1-1.4,4.7-3.8,5.9-5.5c-2.2-2.3-2.8-5-1.3-7.9c1.4-2.6,3.7-3.7,6.7-3.4c0.6-2.8,0.7-5.6,0.4-8.5
				C-56.4,387.1-57.2,387.1-58,386.9z M-78.2,402.4c-6.7,2.4-14.1-1-16.5-7.7c-2.4-6.7,1-14.1,7.7-16.5c6.7-2.5,14.1,1,16.6,7.7
				C-68,392.5-71.5,399.9-78.2,402.4z"/>
			<path id="XMLID_9396_" class="st5" d="M-27.4,400.5c-1.8,0.1-3.3-0.6-4.3-2.2c-1-1.5-1-3.1-0.2-4.7c0.2-0.3,0.1-0.4-0.2-0.6
				c-1.6-1.1-3.3-2-5.2-2.6c-1,2.1-2.6,3.3-5,3.1c-2.2-0.2-3.6-1.6-4.2-3.8c-2.1,0.3-4,1-5.9,1.9c0.8,2.2,0.5,4.1-1.3,5.6
				s-3.7,1.5-5.7,0.3c-1.2,1.7-2.2,3.6-2.8,5.6c2.2,1,3.3,2.6,3.1,5c-0.2,2.2-1.6,3.5-3.7,4.1c0.3,2.1,1,4,2,5.9
				c1-0.4,2-0.5,3.1-0.3c3,0.7,4.5,4.1,3,6.8c-0.1,0.2-0.1,0.3,0.1,0.5c1.6,1.1,3.9,2.2,5.3,2.6c0.9-2,2.5-3.1,4.8-3
				c2.3,0.2,3.6,1.5,4.3,3.6c1.4-0.2,2.7-0.6,4-1.1c0.6-0.2,1.2-0.5,1.8-0.8l0,0c-0.9-2.1-0.3-4.3,1.5-5.7c1.6-1.1,3.3-1.2,5-0.4
				c0.3,0.1,0.4,0.1,0.5-0.1c1.1-1.5,2.2-3.8,2.6-5.3c-2.1-1-3.2-2.7-2.9-5c0.3-2.1,1.6-3.4,3.6-4c-0.3-2.1-1-4-1.9-5.9
				C-26.3,400.3-26.8,400.5-27.4,400.5z M-37.1,416.2c-3.9,3.4-9.8,2.9-13.2-1c-3.4-3.9-2.9-9.8,1-13.2c3.9-3.4,9.8-3,13.2,1
				C-32.7,406.9-33.2,412.8-37.1,416.2z"/>
		</g>
	</g>
	<g id="XMLID_5321_" class="st3">
		<path id="XMLID_5361_" class="st5" d="M-65,519.5c-54,0-97.9-43.9-97.9-97.9s43.9-97.9,97.9-97.9s97.9,43.9,97.9,97.9
			S-11,519.5-65,519.5z"/>
		<path id="XMLID_5358_" class="st4" d="M-65,320.5c-55.8,0-101.1,45.4-101.1,101.1S-120.8,522.7-65,522.7S36.1,477.3,36.1,421.6
			S-9.2,320.5-65,320.5z M-65,326.8c52.3,0,94.7,42.4,94.7,94.7c0,17.5-4.8,33.9-13.1,48h-163.3c-8.3-14.1-13.1-30.5-13.1-48
			C-159.7,369.3-117.3,326.8-65,326.8z"/>
		<g id="XMLID_5350_">
			<path id="XMLID_5355_" class="st5" d="M-98.6,477.8h13.5c4.5,0,7.3,3.1,7.3,6.9c0,2.9-1.2,5.1-3.9,6.3v0.1
				c2.7,0.7,3.5,3.3,3.6,5.8c0.1,1.6,0.1,4.5,1.1,5.9h-5.5c-0.7-1.6-0.6-4-0.9-6c-0.4-2.6-1.4-3.8-4.2-3.8h-5.5v9.8h-5.5V477.8z
				 M-93.1,489.1h6c2.4,0,3.8-1.1,3.8-3.6c0-2.4-1.3-3.5-3.8-3.5h-6V489.1z"/>
			<path id="XMLID_5353_" class="st5" d="M-68.4,482.4h-7.5v-4.6h20.4v4.6H-63v20.3h-5.5L-68.4,482.4L-68.4,482.4z"/>
			<path id="XMLID_5351_" class="st5" d="M-31.4,493.3c0,6.7-4,10-10.7,10s-10.6-3.3-10.6-10v-15.5h5.5v15.5c0,2.7,0.7,5.4,5.1,5.4
				c3.9,0,5.2-1.7,5.2-5.4v-15.5h5.5V493.3z"/>
		</g>
		<g id="XMLID_5322_">
			<g id="XMLID_5332_">
				<path id="XMLID_5342_" class="st4" d="M0.8,396.1h-6v-5.9c0-1.8-1.4-3.2-3.2-3.2h-63.8c-1,3-2.4,5.8-4.2,8.3v1h-0.7
					c-6.3,8.4-16.3,13.9-27.6,13.9s-21.3-5.4-27.6-13.8c-1.6,0.6-2.7,2.2-2.7,4v51.8c0,2.3,1.9,4.3,4.3,4.3H0.8
					c2.3,0,4.3-1.9,4.3-4.3v-51.8C5,398.1,3.1,396.1,0.8,396.1z M-65.8,396.3h-7.7v-5.1h1.8l0.7-1.3l0,0l0,0h2.8l0,0l0,0l0.7,1.3
					h1.8v5.1H-65.8z M-55.3,396.3H-63v-5.1h1.8l0.7-1.3l0,0l0,0h2.8l0,0l0,0l0.7,1.3h1.8v5.1H-55.3z M-44.8,396.3h-7.7v-5.1h1.8
					l0.7-1.3l0,0l0,0h2.8l0,0l0,0l0.7,1.3h1.8v5.1H-44.8z M-34.3,396.3H-42v-5.1h1.8l0.7-1.3l0,0l0,0h2.8l0,0l0,0l0.7,1.3h1.8v5.1
					H-34.3z M-23.8,396.3h-7.7v-5.1h1.8l0.7-1.3l0,0l0,0h2.8l0,0l0,0l0.7,1.3h1.8v5.1H-23.8z M-13.3,396.3H-21v-5.1h1.8l0.7-1.3l0,0
					l0,0h2.8l0,0l0,0l0.7,1.3h1.8v5.1H-13.3z"/>
				<g id="XMLID_5333_">
					<g id="XMLID_5334_">
						<g id="XMLID_5335_">
							<path id="XMLID_85_" class="st4" d="M-104.7,404.5c-15.8,0-28.7-12.9-28.7-28.7c0-15.8,12.9-28.7,28.7-28.7
								S-76,359.9-76,375.8S-88.9,404.5-104.7,404.5z M-104.7,351.4c-13.5,0-24.4,10.9-24.4,24.4s10.9,24.4,24.4,24.4
								s24.4-10.9,24.4-24.4S-91.3,351.4-104.7,351.4z"/>
						</g>
					</g>
				</g>
			</g>
			<g id="XMLID_5323_">
				<circle id="XMLID_5331_" class="st4" cx="-104.7" cy="375.8" r="4.5"/>
				<g id="XMLID_5324_">
					<path id="XMLID_5330_" class="st4" d="M-112.3,375.8c0-1.7,0.6-3.3,1.5-4.6l-2.1-1.6c-1.3,1.7-2.1,3.9-2.1,6.2s0.8,4.5,2.1,6.2
						l2.1-1.6C-111.7,379.1-112.3,377.5-112.3,375.8z"/>
					<path id="XMLID_5329_" class="st4" d="M-94.4,375.8c0-2.3-0.8-4.5-2.1-6.2l-2.1,1.6c1,1.3,1.5,2.9,1.5,4.6
						c0,1.7-0.6,3.3-1.6,4.6l2.1,1.6C-95.2,380.2-94.4,378.1-94.4,375.8z"/>
					<path id="XMLID_5328_" class="st4" d="M-89.5,375.8c0-3.4-1.2-6.6-3.1-9.2l-2.1,1.6c1.6,2.1,2.6,4.7,2.6,7.5
						c0,2.8-1,5.4-2.5,7.5l2.1,1.6C-90.6,382.4-89.5,379.2-89.5,375.8z"/>
					<path id="XMLID_5327_" class="st4" d="M-117.3,375.8c0-2.8,1-5.4,2.6-7.5l-2.1-1.6c-1.9,2.6-3.1,5.7-3.1,9.2
						c0,3.4,1.2,6.6,3.1,9.2l2.1-1.6C-116.3,381.2-117.3,378.6-117.3,375.8z"/>
					<path id="XMLID_5326_" class="st4" d="M-84.6,375.8c0-4.6-1.5-8.7-4.1-12.1l-2.1,1.6c2.2,2.9,3.6,6.6,3.6,10.5
						s-1.3,7.6-3.5,10.5l2.1,1.6C-86.1,384.5-84.6,380.3-84.6,375.8z"/>
					<path id="XMLID_5325_" class="st4" d="M-122.2,375.8c0-3.9,1.3-7.6,3.6-10.5l-2.1-1.6c-2.6,3.4-4.1,7.6-4.1,12.1
						c0,4.6,1.5,8.7,4.1,12.1l2.1-1.6C-120.9,383.3-122.2,379.7-122.2,375.8z"/>
				</g>
			</g>
		</g>
	</g>
</g>
<g id="Layer_3">
	<g id="XMLID_843_">
		<g id="XMLID_9479_">
			<path id="XMLID_627_" class="st4" d="M-65,519.4c-54,0-98-44-98-98s44-98,98-98s98,44,98,98S-11,519.4-65,519.4z"/>
			<path id="XMLID_628_" class="st5" d="M-65,522.4c-55.7,0-101-45.3-101-101s45.3-101,101-101s101,45.3,101,101
				S-9.3,522.4-65,522.4z M-65,326.4c-52.4,0-95,42.6-95,95s42.6,95,95,95s95-42.6,95-95S-12.6,326.4-65,326.4z"/>
		</g>
		<g id="XMLID_9473_">
			<path id="XMLID_873_" class="st5" d="M-6.4,364.6h-117.2c-3.4,0-6.3,2.8-6.3,6.3v68.8c0,3.4,2.8,6.3,6.3,6.3H-6.5
				c3.4,0,6.3-2.8,6.3-6.3v-68.8C-0.2,367.4-3,364.6-6.4,364.6z M-71.9,426.4l-17.9-3.5v-16.5h17.9V426.4z M-71.9,404.2h-17.9v-16.4
				l17.9-3.5V404.2z M-40.3,432.6l-28.8-5.7v-20.5h28.8V432.6z M-40.3,404.2h-28.8v-20.5l28.8-5.7V404.2z"/>
		</g>
		<g id="XMLID_9469_">
			<polygon id="XMLID_871_" class="st5" points="-41.3,464.2 -88.7,464.2 -82,450.7 -48,450.7 			"/>
		</g>
		<g id="XMLID_5_">
			<g id="XMLID_9467_">
				<path id="XMLID_868_" class="st5" d="M-108.8,495.6h-3.8l-3-11.9l0,0l-2.9,11.9h-3.9l-4.6-17.5h3.9l2.8,11.9l0,0l3-11.9h3.6
					l3,12.1l0,0l2.9-12.1h3.8L-108.8,495.6z"/>
			</g>
			<g id="XMLID_9465_">
				<path id="XMLID_865_" class="st5" d="M-102.4,478h3.9v17.5h-3.9V478z"/>
			</g>
			<g id="XMLID_9463_">
				<path id="XMLID_862_" class="st5" d="M-95.1,478h3.8l7.3,11.7l0,0V478h3.6v17.5h-3.9l-7.3-11.7l0,0v11.7h-3.6L-95.1,478
					L-95.1,478z"/>
			</g>
			<g id="XMLID_9460_">
				<path id="XMLID_858_" class="st5" d="M-76.9,478h7.6c1.1,0,2.2,0.2,3.2,0.5c1,0.4,1.8,0.9,2.5,1.6c0.7,0.7,1.3,1.6,1.7,2.7
					c0.4,1.1,0.6,2.3,0.6,3.8c0,1.3-0.2,2.5-0.5,3.5c-0.3,1.1-0.8,2-1.5,2.8c-0.7,0.8-1.5,1.4-2.5,1.9s-2.2,0.7-3.5,0.7h-7.6
					C-76.9,495.5-76.9,478-76.9,478z M-73.1,492.3h3.4c0.6,0,1.1-0.1,1.6-0.3c0.5-0.2,1-0.5,1.4-0.9s0.7-1,1-1.6
					c0.2-0.7,0.4-1.5,0.4-2.5c0-0.9-0.1-1.7-0.3-2.4c-0.2-0.7-0.5-1.3-0.8-1.8c-0.4-0.5-0.9-0.9-1.6-1.2c-0.6-0.3-1.4-0.4-2.4-0.4
					h-2.7V492.3z"/>
			</g>
			<g id="XMLID_9457_">
				<path id="XMLID_16_" class="st5" d="M-59.5,486.9c0-1.3,0.2-2.5,0.6-3.6s1-2.1,1.7-2.9c0.7-0.8,1.6-1.5,2.7-2s2.3-0.7,3.6-0.7
					c1.4,0,2.6,0.2,3.6,0.7c1.1,0.5,2,1.1,2.7,2c0.7,0.8,1.3,1.8,1.7,2.9s0.6,2.3,0.6,3.6c0,1.3-0.2,2.5-0.6,3.6
					c-0.4,1.1-1,2.1-1.7,2.9s-1.6,1.5-2.7,1.9c-1.1,0.5-2.3,0.7-3.6,0.7s-2.5-0.2-3.6-0.7s-2-1.1-2.7-1.9c-0.7-0.8-1.3-1.8-1.7-2.9
					C-59.3,489.3-59.5,488.2-59.5,486.9z M-55.7,486.9c0,0.7,0.1,1.5,0.3,2.1s0.4,1.3,0.8,1.9s0.9,1,1.5,1.3
					c0.6,0.3,1.3,0.5,2.2,0.5s1.6-0.2,2.2-0.5c0.6-0.3,1.1-0.8,1.5-1.3c0.4-0.6,0.6-1.2,0.8-1.9c0.2-0.7,0.3-1.4,0.3-2.1
					c0-0.8-0.1-1.5-0.3-2.2c-0.2-0.7-0.4-1.4-0.8-1.9c-0.4-0.6-0.9-1-1.5-1.4s-1.3-0.5-2.2-0.5s-1.6,0.2-2.2,0.5
					c-0.6,0.3-1.1,0.8-1.5,1.4c-0.4,0.6-0.6,1.2-0.8,1.9C-55.6,485.4-55.7,486.1-55.7,486.9z"/>
			</g>
			<g id="XMLID_9455_">
				<path id="XMLID_851_" class="st5" d="M-23,495.6h-3.8l-3-11.9l0,0l-2.9,11.9h-3.9l-4.6-17.5h3.9l2.8,11.9l0,0l3-11.9h3.6l3,12.1
					l0,0l2.9-12.1h3.8L-23,495.6z"/>
			</g>
			<g id="XMLID_9453_">
				<path id="XMLID_848_" class="st5" d="M-13.9,489.7c0,0.6,0.1,1.1,0.3,1.5s0.5,0.7,0.8,1c0.4,0.3,0.8,0.4,1.2,0.6
					c0.5,0.1,1,0.2,1.5,0.2c0.3,0,0.7,0,1.1-0.1c0.4-0.1,0.8-0.2,1.1-0.3c0.3-0.2,0.6-0.4,0.9-0.7c0.3-0.3,0.3-0.7,0.3-1.1
					c0-0.5-0.2-0.9-0.5-1.2c-0.3-0.3-0.7-0.5-1.2-0.7c-0.5-0.2-1-0.4-1.7-0.5s-1.3-0.3-1.9-0.5c-0.7-0.2-1.3-0.4-1.9-0.6
					c-0.6-0.2-1.2-0.5-1.7-0.9s-0.9-0.8-1.2-1.4c-0.3-0.6-0.5-1.2-0.5-2c0-0.9,0.2-1.7,0.6-2.3c0.4-0.7,0.9-1.2,1.5-1.7
					c0.6-0.4,1.3-0.8,2.1-1c0.8-0.2,1.6-0.3,2.4-0.3c0.9,0,1.8,0.1,2.6,0.3c0.8,0.2,1.6,0.5,2.2,1c0.7,0.5,1.2,1,1.6,1.8
					c0.4,0.7,0.6,1.6,0.6,2.6h-3.7c0-0.5-0.1-1-0.3-1.3c-0.2-0.3-0.4-0.6-0.7-0.8c-0.3-0.2-0.7-0.3-1.1-0.4
					c-0.4-0.1-0.8-0.1-1.3-0.1c-0.3,0-0.6,0-0.9,0.1c-0.3,0.1-0.6,0.2-0.8,0.3s-0.5,0.4-0.6,0.6c-0.2,0.2-0.2,0.6-0.2,0.9
					s0.1,0.6,0.2,0.8c0.1,0.2,0.4,0.4,0.8,0.6c0.4,0.2,0.9,0.4,1.6,0.5c0.7,0.2,1.6,0.4,2.7,0.7c0.3,0.1,0.8,0.2,1.4,0.4
					c0.6,0.2,1.2,0.4,1.7,0.8c0.6,0.4,1.1,0.9,1.5,1.5s0.6,1.4,0.6,2.4c0,0.8-0.2,1.5-0.5,2.2c-0.3,0.7-0.8,1.3-1.4,1.8
					c-0.6,0.5-1.4,0.9-2.3,1.2c-0.9,0.3-2,0.4-3.2,0.4c-1,0-1.9-0.1-2.8-0.4c-0.9-0.2-1.7-0.6-2.4-1.1s-1.2-1.2-1.7-1.9
					c-0.4-0.8-0.6-1.7-0.6-2.8h3.8V489.7z"/>
			</g>
		</g>
	</g>
</g>
<g id="Layer_1_1_" class="st0">
	<g id="XMLID_17583_" class="st3">
		<circle id="XMLID_17587_" class="st4" cx="-137.3" cy="348.6" r="43.7"/>
	</g>
</g>
<g id="Layer_3_copy" class="st0">
	<g id="XMLID_31_" class="st3">
		<g id="XMLID_32_">
			<path id="XMLID_72_" class="st5" d="M-137.3,390.8c-23.3,0-42.2-18.9-42.2-42.2c0-23.3,18.9-42.2,42.2-42.2s42.2,18.9,42.2,42.2
				C-95.1,371.9-114,390.8-137.3,390.8z"/>
			<path id="XMLID_69_" class="st4" d="M-137.3,307.9c22.4,0,40.7,18.3,40.7,40.7c0,22.4-18.2,40.7-40.7,40.7s-40.7-18.2-40.7-40.7
				S-159.7,307.9-137.3,307.9 M-137.3,304.9c-24.1,0-43.7,19.6-43.7,43.7s19.6,43.7,43.7,43.7s43.7-19.6,43.7-43.7
				S-113.1,304.9-137.3,304.9L-137.3,304.9z"/>
		</g>
	</g>
</g>
<g id="Layer_1_copy" class="st0">
	<g id="XMLID_29_" class="st3">
		<g id="XMLID_30_">
			<path id="XMLID_67_" class="st4" d="M-137.3,390.8c-23.3,0-42.2-18.9-42.2-42.2c0-23.3,18.9-42.2,42.2-42.2s42.2,18.9,42.2,42.2
				C-95.1,371.9-114,390.8-137.3,390.8z"/>
			<path id="XMLID_64_" class="st5" d="M-137.3,307.9c22.4,0,40.7,18.3,40.7,40.7c0,22.4-18.2,40.7-40.7,40.7s-40.7-18.2-40.7-40.7
				S-159.7,307.9-137.3,307.9 M-137.3,304.9c-24.1,0-43.7,19.6-43.7,43.7s19.6,43.7,43.7,43.7s43.7-19.6,43.7-43.7
				S-113.1,304.9-137.3,304.9L-137.3,304.9z"/>
		</g>
	</g>
</g>
</svg>
